<svg xmlns="http://www.w3.org/2000/svg" viewBox="0 0 1200 1080" role="img" aria-label="Installation 12 volts cible : batterie moteur et guindeau, batterie LiFePO4 avec son shunt, chargeur DC/DC Orion XS, chargeur de quai Blue Smart, départs protégés vers les tableaux et l&#x27;entrée 12 volts du chauffe-eau.">
  <title>Folio 4 · Installation 12 V cible</title>
  <desc>Tout le 12 V tel qu&#x27;il sera après les études décidées (A, D, E, B-H3) : chaque câble est protégé à sa source, le shunt compte toute la servitude, et le guindeau passe sur la batterie moteur. Variantes encore ouvertes : E-H4 (coffre de la batterie, folios 2j et 2k) et D-H2 (afficheur, folio 2f).</desc>
  <style>
    /* Style autonome : retiré par outils/page.py quand le folio est intégré à la page HTML. */
    svg{--sheet:#fbfcfd;--ink:#18212b;--muted:#5a6776;--pos:#c8231c;--unk:#1f6fbf;--warn:#e58a00;--on-warn:#1a1206;--new:#1d8a4a;--new-soft:#e2f3e8;--zone:#e8edf2;--ph:#8a5a2b;--ne:#2563c4;--pe:#2f9e44;--pey:#e6b800}
    @media (prefers-color-scheme: dark){svg{--sheet:#151b22;--ink:#e3e8ee;--muted:#93a1b0;--pos:#ff5a4f;--unk:#5aa9f5;--warn:#ffa53d;--new:#4fcf85;--new-soft:#15301f;--zone:#1f2832;--ph:#c8915a;--ne:#6aa7ff;--pe:#51cf66;--pey:#ffd43b}}
    .bg{fill:var(--sheet)}
    text{font-family:"IBM Plex Sans Condensed","Arial Narrow","Roboto Condensed",sans-serif;fill:var(--ink)}
    .t{font-size:12.5px}.tb{font-size:13px;font-weight:600}.ts{font-size:11.5px;fill:var(--muted)}
    .id,.idn,.pin{font-family:"IBM Plex Mono",Consolas,monospace}
    .id{font-size:10.5px;fill:var(--muted)}.idn{font-size:10.5px;fill:var(--new)}.pin{font-size:8.5px;fill:var(--ink)}
    .tu{fill:var(--unk)}.tn{fill:var(--new)}.mid{text-anchor:middle}.end{text-anchor:end}
    .p,.n,.u,.lever,.bound,.ph,.ne,.pe,.pey,.leader{fill:none;stroke-linecap:round;stroke-linejoin:round}
    .p{stroke:var(--pos)}.n{stroke:var(--ink)}
    .ph{stroke:var(--ph)}.ne{stroke:var(--ne)}.pe{stroke:var(--pe)}.pey{stroke:var(--pey);stroke-dasharray:6 6;stroke-linecap:butt}
    .u{stroke:var(--unk);stroke-width:1.6;stroke-dasharray:6 4}
    .bound{stroke:var(--muted);stroke-width:1;stroke-dasharray:2 4}
    .w1{stroke-width:1.3}.w2{stroke-width:2}.w3{stroke-width:2.8}.w4{stroke-width:4}.w5{stroke-width:5.5}
    .box{fill:var(--sheet);stroke:var(--ink);stroke-width:1.4}
    .box-new{fill:var(--new-soft);stroke:var(--new);stroke-width:1.6}
    .box-unk{fill:var(--sheet);stroke:var(--unk);stroke-width:1.5;stroke-dasharray:6 4}
    .fuse{fill:var(--sheet);stroke:var(--ink);stroke-width:1.3}
    .fuse-new{fill:var(--new-soft);stroke:var(--new);stroke-width:1.6}
    .dp{fill:var(--pos)}.dn{fill:var(--ink)}
    .term{fill:var(--sheet);stroke:var(--ink);stroke-width:1.4}
    .lever{stroke:var(--ink);stroke-width:2}
    .sw{fill:none;stroke:var(--muted);stroke-width:1;stroke-dasharray:5 3}
    .flag{fill:var(--sheet);stroke:var(--ink);stroke-width:1.2}
    .flag-new{fill:var(--new-soft);stroke:var(--new);stroke-width:1.4}
    .hull{fill:var(--sheet);stroke:var(--ink);stroke-width:2}
    .zone{fill:var(--zone);stroke:var(--muted);stroke-width:1}
    .zone-pont{fill:none;stroke:var(--muted);stroke-width:1.2;stroke-dasharray:4 3}
    .leader{stroke:var(--muted);stroke-width:1}
    .callout{fill:var(--sheet);stroke:var(--ink);stroke-width:1.2}
    .mk-a circle{fill:var(--warn)}
    .mk-a text{fill:var(--on-warn);font-family:"IBM Plex Mono",Consolas,monospace;font-size:9.5px;font-weight:500}
    .mk-q circle{fill:var(--sheet);stroke:var(--unk);stroke-width:1.5}
    .mk-q text{fill:var(--unk);font-family:"IBM Plex Mono",Consolas,monospace;font-size:9.5px;font-weight:500}
  </style>
  <rect class="bg" x="0" y="0" width="100%" height="100%"/>
  <!-- Généré par outils/folio.py depuis folio-4-cible-12v.yaml : ne pas modifier à la main. -->
  <rect class="u" x="804" y="168" width="214" height="154" rx="4"/>
  <text class="ts tu" x="812" y="318">télécommande : sections à relever</text>
  <rect class="box" x="40" y="40" width="200" height="70" rx="2"/>
  <text class="tb mid" x="140" y="60">Chargeur Dolphin 20 A</text>
  <text class="ts mid" x="140" y="75">batterie moteur seule</text>
  <rect class="box" x="40" y="150" width="150" height="90" rx="2"/>
  <text class="tb mid" x="115" y="170">Batterie moteur</text>
  <text class="ts mid" x="115" y="185">Pb 110 Ah · coffre tribord</text>
  <rect class="fuse-new" x="232" y="211" width="48" height="18"/>
  <text class="idn mid" x="256" y="224">400 A</text>
  <text class="ts tn mid" x="256" y="258">A-H2</text>
  <rect class="fuse-new" x="208" y="168" width="16" height="36"/>
  <text class="idn" x="228" y="190">30 A</text>
  <rect class="sw" x="424" y="204" width="60" height="32" rx="2"/>
  <path class="lever" d="M424 220 L481 207"/>
  <text class="ts mid" x="454" y="196">CC moteur</text>
  <rect class="box" x="620" y="160" width="160" height="80" rx="2"/>
  <text class="tb mid" x="700" y="180">Yanmar 3GMD</text>
  <text class="ts mid" x="700" y="195">démarreur + alternateur</text>
  <rect class="fuse" x="600" y="71" width="56" height="18"/>
  <text class="id mid" x="628" y="84">70 A</text>
  <text class="ts mid" x="628" y="66">disj. guindeau</text>
  <rect class="box" x="840" y="50" width="140" height="110" rx="2"/>
  <text class="tb mid" x="910" y="70">Relais</text>
  <text class="ts mid" x="910" y="85">guindeau</text>
  <circle class="box" cx="1110" cy="78" r="22"/>
  <text class="tb mid" x="1110" y="83">M</text>
  <rect class="fuse" x="816" y="190" width="16" height="36"/>
  <text class="id end" x="812" y="212">5 A</text>
  <rect class="box-unk" x="850" y="236" width="160" height="70" rx="2"/>
  <text class="tb mid" x="930" y="296">Télécommande</text>
  <rect class="fuse-new" x="488" y="262" width="16" height="36"/>
  <text class="idn end" x="484" y="284">70 A</text>
  <rect class="fuse-new" x="546" y="291" width="36" height="18"/>
  <text class="idn mid" x="564" y="304">1 A</text>
  <rect class="sw" x="640" y="284" width="60" height="32" rx="2"/>
  <path class="lever" d="M640 300 L697 287"/>
  <text class="ts tn mid" x="670" y="276">interrupteur Orion XS</text>
  <rect class="box-new" x="360" y="370" width="240" height="100" rx="2"/>
  <text class="tb mid tn" x="480" y="408">Orion XS 12/12-50A</text>
  <text class="ts mid" x="480" y="423">DC/DC · réglé vers 15 A</text>
  <text class="ts mid" x="480" y="438">contremarche (ou coffre : E-H4)</text>
  <rect class="fuse-new" x="392" y="500" width="16" height="36"/>
  <text class="idn" x="412" y="522">70 A</text>
  <rect class="box-new" x="40" y="470" width="200" height="70" rx="2"/>
  <text class="tb mid tn" x="140" y="490">Blue Smart IP67 12/17</text>
  <text class="ts mid" x="140" y="505">chargeur de quai · 230 V : folio 3</text>
  <rect class="fuse-new" x="314" y="617" width="46" height="18"/>
  <text class="idn mid" x="337" y="630">25 A</text>
  <rect class="box-new" x="40" y="620" width="150" height="80" rx="2"/>
  <text class="tb mid tn" x="115" y="640">LiFePO4 200 Ah</text>
  <text class="ts mid" x="115" y="655">BMS 250 A</text>
  <rect class="fuse-new" x="232" y="661" width="48" height="18"/>
  <text class="idn mid" x="256" y="674">300 A</text>
  <text class="ts tn mid" x="256" y="704">MEGA</text>
  <rect class="sw" x="424" y="654" width="60" height="32" rx="2"/>
  <path class="lever" d="M424 670 L481 657"/>
  <text class="ts mid" x="454" y="646">CC servitude</text>
  <rect class="box-new" x="40" y="750" width="180" height="70" rx="2"/>
  <text class="tb mid tn" x="130" y="770">Shunt 500 A</text>
  <text class="ts mid" x="130" y="785">D-H1 · Bluetooth</text>
  <rect class="fuse-new" x="400" y="700" width="16" height="36"/>
  <text class="idn" x="420" y="722">1 A</text>
  <rect class="fuse-new" x="256" y="793" width="40" height="18"/>
  <text class="idn mid" x="276" y="806">1 A</text>
  <rect class="fuse-new" x="560" y="601" width="46" height="18"/>
  <text class="idn mid" x="583" y="614">50 A</text>
  <rect class="box" x="880" y="563" width="220" height="60" rx="2"/>
  <text class="tb mid" x="990" y="581">Tableau de la table à carte</text>
  <text class="ts mid" x="990" y="596">12 départs · A-H1 différé : folio 2b</text>
  <rect class="fuse-new" x="520" y="661" width="46" height="18"/>
  <text class="idn mid" x="543" y="674">30 A</text>
  <rect class="box-new" x="760" y="643" width="100" height="60" rx="2"/>
  <text class="tb mid tn" x="810" y="661">Relais 30 A</text>
  <text class="ts mid" x="810" y="676">près du ballon</text>
  <rect class="box-new" x="920" y="643" width="180" height="60" rx="2"/>
  <text class="tb mid tn" x="1010" y="661">CozyWater 10C</text>
  <text class="ts mid" x="1010" y="676">entrée 12 V · 200 W</text>
  <rect class="fuse-new" x="540" y="821" width="46" height="18"/>
  <text class="idn mid" x="563" y="834">30 A</text>
  <rect class="box" x="650" y="783" width="170" height="60" rx="2"/>
  <text class="tb mid" x="735" y="801">Tableau Scheiber 2 voies</text>
  <text class="ts mid" x="735" y="816">frigo 15 A · cale 10 A</text>
  <rect class="box" x="880" y="783" width="100" height="90" rx="2"/>
  <text class="tb mid" x="930" y="803">EPS 100</text>
  <rect class="box" x="1010" y="783" width="90" height="90" rx="2"/>
  <text class="tb mid" x="1055" y="803">Groupe froid</text>
  <text class="ts mid" x="1055" y="818">CU-55</text>
  <circle class="box" cx="690" cy="920" r="18"/>
  <text class="tb mid" x="690" y="925">P</text>
  <text class="ts mid" x="690" y="954">Pompe de cale</text>
  <rect class="sw" x="380" y="974" width="60" height="32" rx="2"/>
  <path class="lever" d="M380 990 L437 977"/>
  <text class="ts mid" x="410" y="964">CC masse</text>
  <path class="n w4" d="M380 990 H8"/>
  <path class="n w4" d="M440 990 H1175"/>
  <path class="n w2" d="M40 95 L24 95 L24 204 L40 220"/>
  <text class="idn" x="30" y="135">w201 · 6</text>
  <path class="n w4" d="M40 220 L8 220 L8 990"/>
  <text class="id mid" x="18" y="335" transform="rotate(-90 18 335)">w004 · 35</text>
  <path class="p w4" d="M190 220 L232 220"/>
  <text class="idn mid" x="211" y="236">w160</text>
  <path class="p w2" d="M216 168 L216 110"/>
  <text class="idn" x="222" y="140">w200 · 6</text>
  <path class="p w4" d="M280 220 L424 220"/>
  <text class="idn mid" x="330" y="212">w001 · 35</text>
  <path class="p w4" d="M484 220 L620 220"/>
  <text class="id mid" x="578" y="212">w012 · 35</text>
  <path class="p w4" d="M484 220 L500 204 L500 80 L600 80"/>
  <text class="idn" x="506" y="140">w217 · 35</text>
  <path class="p w5" d="M656 80 L840 80"/>
  <text class="id mid" x="748" y="72">w018 · 50</text>
  <path class="p w3" d="M980 65 L1092.3 65"/>
  <text class="id mid" x="1034" y="81">w020 / w021 · 10</text>
  <path class="p w3" d="M980 90 L1091.6 90"/>
  <path class="n w5" d="M1175 990 L1175 125 L980 125"/>
  <text class="id mid" x="1169" y="420" transform="rotate(-90 1169 420)">w015 · 50</text>
  <path class="n w4" d="M1155 990 L1155 330 L760 330 L760 240"/>
  <text class="id mid" x="1149" y="420" transform="rotate(-90 1149 420)">w013 · 35</text>
  <path class="u" d="M840 80 L824 96 L824 190"/>
  <text class="id end" x="818" y="150">w061</text>
  <path class="u" d="M824 226 L824 270 L850 270"/>
  <text class="id end" x="818" y="256">w062</text>
  <path class="u" d="M870 236 L870 160"/>
  <text class="id mid" x="866" y="198" transform="rotate(-90 866 198)">w063</text>
  <path class="u" d="M950 236 L950 160"/>
  <text class="id mid" x="946" y="198" transform="rotate(-90 946 198)">w064</text>
  <path class="p w3" d="M484 220 L496 232 L496 262"/>
  <text class="idn end" x="488" y="254">w202 · 16</text>
  <path class="p w3" d="M496 298 L496 370"/>
  <text class="idn end" x="488" y="340">w203 · 16</text>
  <path class="p w1" d="M484 220 L530 266 L530 300 L546 300"/>
  <text class="idn" x="540" y="258">w207 · 0,75</text>
  <path class="p w1" d="M582 300 L640 300"/>
  <text class="idn mid" x="608" y="292">w208 · 0,75</text>
  <path class="p w1" d="M700 300 L740 300 L740 450 L600 450"/>
  <text class="idn" x="746" y="400">w209 · 0,75</text>
  <path class="n w1" d="M670 316 L670 340"/>
  <text class="idn end" x="664" y="334">w216</text>
  <path class="p w3" d="M400 500 L400 470"/>
  <text class="idn" x="406" y="488">w205 · 16</text>
  <path class="p w3" d="M424 670 L400 646 L400 536"/>
  <text class="idn" x="406" y="590">w204 · 16</text>
  <path class="n w3" d="M360 450 L18 450 L18 990"/>
  <text class="idn mid" x="190" y="444">w206 · 16</text>
  <path class="p w2" d="M314 626 L290 626 L290 525 L240 525"/>
  <text class="idn mid" x="265" y="517">w211 · 4</text>
  <path class="p w2" d="M424 670 L400 646 L380 626 L360 626"/>
  <text class="idn end" x="392" y="660">w210 · 4</text>
  <path class="n w2" d="M40 525 L28 525 L28 990"/>
  <text class="idn mid" x="37" y="580" transform="rotate(-90 37 580)">w212 · 4</text>
  <path class="p w4" d="M190 670 L232 670"/>
  <text class="idn mid" x="211" y="662">w161</text>
  <path class="p w4" d="M280 670 L424 670"/>
  <text class="idn mid" x="300" y="686">w006 · 35</text>
  <path class="n w4" d="M50 700 L50 750"/>
  <text class="idn" x="56" y="728">w009 · 35</text>
  <path class="n w4" d="M110 820 L110 990"/>
  <text class="idn" x="116" y="900">w180 · 35</text>
  <path class="p w1" d="M424 670 L408 686 L408 700"/>
  <path class="p w1" d="M408 736 L408 770 L220 770"/>
  <text class="idn mid" x="300" y="762">w181 / w182 · 0,75</text>
  <path class="p w1" d="M256 802 L220 802"/>
  <text class="idn mid" x="238" y="794">w184</text>
  <path class="p w1" d="M316 802 L296 802"/>
  <text class="idn mid" x="306" y="794">w183</text>
  <path class="p w2" d="M484 670 L544 610 L560 610"/>
  <text class="idn end" x="536" y="598">w166 · 6</text>
  <path class="p w2" d="M606 610 L880 610"/>
  <text class="idn mid" x="760" y="602">w019 · 6</text>
  <path class="p w2" d="M566 670 L720 670 L740 690 L760 690"/>
  <text class="idn mid" x="640" y="662">w306 · 6</text>
  <path class="p w2" d="M860 690 L920 690"/>
  <text class="idn mid" x="890" y="682">w307</text>
  <path class="n w2" d="M1100 690 L1115 690 L1115 990"/>
  <text class="idn mid" x="1111" y="930" transform="rotate(-90 1111 930)">w308</text>
  <path class="n w2" d="M1135 990 L1135 610 L1100 610"/>
  <text class="id mid" x="1131" y="930" transform="rotate(-90 1131 930)">w016 · 6</text>
  <path class="p w2" d="M484 670 L514 700 L514 830 L540 830"/>
  <text class="idn" x="520" y="780">w167 · 6</text>
  <path class="p w2" d="M586 830 L650 830"/>
  <text class="idn mid" x="618" y="822">w022 · 6</text>
  <path class="n w2" d="M770 990 L770 843"/>
  <text class="id" x="776" y="960">w023 · 6</text>
  <path class="p w2" d="M820 830 L880 830"/>
  <text class="id mid" x="850" y="822">w024 · 3,5</text>
  <path class="n w2" d="M770 843 L802 875 L830 875 L850 855 L880 855"/>
  <text class="id mid" x="826" y="890">w025 · 3,5</text>
  <path class="p w2" d="M690 843 L690 902"/>
  <text class="id end" x="684" y="875">w026 · 2,5</text>
  <path class="n w2" d="M708 920 L750 920 L750 863 L770 843"/>
  <text class="id mid" x="746" y="892" transform="rotate(-90 746 892)">w036 · 2,5</text>
  <path class="p w2" d="M980 830 L1010 830"/>
  <text class="id mid" x="995" y="890">w027 / w028 · 3,5</text>
  <path class="n w2" d="M980 855 L1010 855"/>
  <path class="p w2" d="M216 204 L232 220"/>
  <path class="p w2" d="M484 670 L520 670"/>
  <rect class="flag-new" x="605" y="340" width="130" height="18"/>
  <text class="ts mid" x="670" y="353">→ node005 · CC masse</text>
  <rect class="flag-new" x="316" y="793" width="150" height="18"/>
  <text class="ts mid" x="391" y="806">→ node003 · CC moteur</text>
  <circle class="term" cx="40" cy="95" r="3.5"/>
  <circle class="term" cx="216" cy="110" r="3.5"/>
  <circle class="term" cx="190" cy="220" r="3.5"/>
  <circle class="term" cx="40" cy="220" r="3.5"/>
  <circle class="term" cx="232" cy="220" r="3.5"/>
  <circle class="term" cx="280" cy="220" r="3.5"/>
  <circle class="term" cx="216" cy="168" r="3.5"/>
  <circle class="term" cx="216" cy="204" r="3.5"/>
  <circle class="term" cx="424" cy="220" r="3.5"/>
  <circle class="term" cx="484" cy="220" r="3.5"/>
  <circle class="term" cx="620" cy="220" r="3.5"/>
  <circle class="term" cx="760" cy="240" r="3.5"/>
  <circle class="term" cx="600" cy="80" r="3.5"/>
  <circle class="term" cx="656" cy="80" r="3.5"/>
  <circle class="term" cx="840" cy="80" r="3.5"/>
  <circle class="term" cx="980" cy="65" r="3.5"/>
  <circle class="term" cx="980" cy="90" r="3.5"/>
  <circle class="term" cx="980" cy="125" r="3.5"/>
  <circle class="term" cx="870" cy="160" r="3.5"/>
  <circle class="term" cx="950" cy="160" r="3.5"/>
  <circle class="term" cx="1092.3" cy="65" r="3.5"/>
  <circle class="term" cx="1091.6" cy="90" r="3.5"/>
  <circle class="term" cx="824" cy="190" r="3.5"/>
  <circle class="term" cx="824" cy="226" r="3.5"/>
  <circle class="term" cx="850" cy="270" r="3.5"/>
  <circle class="term" cx="870" cy="236" r="3.5"/>
  <circle class="term" cx="950" cy="236" r="3.5"/>
  <circle class="term" cx="496" cy="262" r="3.5"/>
  <circle class="term" cx="496" cy="298" r="3.5"/>
  <circle class="term" cx="546" cy="300" r="3.5"/>
  <circle class="term" cx="582" cy="300" r="3.5"/>
  <circle class="term" cx="640" cy="300" r="3.5"/>
  <circle class="term" cx="700" cy="300" r="3.5"/>
  <circle class="term" cx="670" cy="316" r="3.5"/>
  <circle class="term" cx="496" cy="370" r="3.5"/>
  <circle class="term" cx="400" cy="470" r="3.5"/>
  <circle class="term" cx="360" cy="450" r="3.5"/>
  <circle class="term" cx="600" cy="450" r="3.5"/>
  <circle class="term" cx="400" cy="500" r="3.5"/>
  <circle class="term" cx="400" cy="536" r="3.5"/>
  <circle class="term" cx="240" cy="525" r="3.5"/>
  <circle class="term" cx="40" cy="525" r="3.5"/>
  <circle class="term" cx="314" cy="626" r="3.5"/>
  <circle class="term" cx="360" cy="626" r="3.5"/>
  <circle class="term" cx="190" cy="670" r="3.5"/>
  <circle class="term" cx="50" cy="700" r="3.5"/>
  <circle class="term" cx="232" cy="670" r="3.5"/>
  <circle class="term" cx="280" cy="670" r="3.5"/>
  <circle class="term" cx="424" cy="670" r="3.5"/>
  <circle class="term" cx="484" cy="670" r="3.5"/>
  <circle class="term" cx="50" cy="750" r="3.5"/>
  <circle class="term" cx="110" cy="820" r="3.5"/>
  <circle class="term" cx="220" cy="770" r="3.5"/>
  <circle class="term" cx="220" cy="802" r="3.5"/>
  <circle class="term" cx="408" cy="700" r="3.5"/>
  <circle class="term" cx="408" cy="736" r="3.5"/>
  <circle class="term" cx="256" cy="802" r="3.5"/>
  <circle class="term" cx="296" cy="802" r="3.5"/>
  <circle class="term" cx="560" cy="610" r="3.5"/>
  <circle class="term" cx="606" cy="610" r="3.5"/>
  <circle class="term" cx="880" cy="610" r="3.5"/>
  <circle class="term" cx="1100" cy="610" r="3.5"/>
  <circle class="term" cx="520" cy="670" r="3.5"/>
  <circle class="term" cx="566" cy="670" r="3.5"/>
  <circle class="term" cx="760" cy="690" r="3.5"/>
  <circle class="term" cx="860" cy="690" r="3.5"/>
  <circle class="term" cx="920" cy="690" r="3.5"/>
  <circle class="term" cx="1100" cy="690" r="3.5"/>
  <circle class="term" cx="540" cy="830" r="3.5"/>
  <circle class="term" cx="586" cy="830" r="3.5"/>
  <circle class="term" cx="650" cy="830" r="3.5"/>
  <circle class="term" cx="820" cy="830" r="3.5"/>
  <circle class="term" cx="690" cy="843" r="3.5"/>
  <circle class="term" cx="770" cy="843" r="3.5"/>
  <circle class="term" cx="880" cy="830" r="3.5"/>
  <circle class="term" cx="880" cy="855" r="3.5"/>
  <circle class="term" cx="980" cy="830" r="3.5"/>
  <circle class="term" cx="980" cy="855" r="3.5"/>
  <circle class="term" cx="1010" cy="830" r="3.5"/>
  <circle class="term" cx="1010" cy="855" r="3.5"/>
  <circle class="term" cx="690" cy="902" r="3.5"/>
  <circle class="term" cx="708" cy="920" r="3.5"/>
  <circle class="term" cx="380" cy="990" r="3.5"/>
  <circle class="term" cx="440" cy="990" r="3.5"/>
  <text class="id" x="47" y="94">n018</text>
  <text class="pin" x="47" y="104">−</text>
  <text class="id end" x="211" y="94">n016</text>
  <text class="pin end" x="211" y="104">s1</text>
  <text class="id end" x="183" y="219">n001</text>
  <text class="pin end" x="183" y="229">+</text>
  <text class="id" x="47" y="219">n002</text>
  <text class="pin" x="47" y="229">−</text>
  <text class="idn end" x="230" y="250">n070</text>
  <text class="idn" x="284" y="238">n071</text>
  <text class="idn" x="228" y="172">n075</text>
  <text class="idn" x="228" y="206">n074</text>
  <text class="id end" x="418" y="238">n003</text>
  <text class="id" x="506" y="214">n004</text>
  <text class="id" x="627" y="219">n031</text>
  <text class="pin" x="627" y="229">+</text>
  <text class="id end" x="755" y="224">n032</text>
  <text class="pin end" x="755" y="234">−</text>
  <text class="id end" x="598" y="100">n020</text>
  <text class="id" x="658" y="100">n021</text>
  <text class="id" x="847" y="79">n022</text>
  <text class="pin" x="847" y="89">e+</text>
  <text class="id end" x="973" y="64">n024</text>
  <text class="pin end" x="973" y="74">A</text>
  <text class="id end" x="973" y="89">n025</text>
  <text class="pin end" x="973" y="99">B</text>
  <text class="id end" x="973" y="124">n023</text>
  <text class="pin end" x="973" y="134">e−</text>
  <text class="id" x="875" y="144">n026</text>
  <text class="pin" x="875" y="154">mont</text>
  <text class="id end" x="945" y="144">n027</text>
  <text class="pin end" x="945" y="154">desc</text>
  <text class="id end" x="1088.3" y="59">n029</text>
  <text class="pin end" x="1088.3" y="69">A</text>
  <text class="id end" x="1087.6" y="104">n030</text>
  <text class="pin end" x="1087.6" y="114">B</text>
  <text class="id" x="834" y="194">n033</text>
  <text class="id" x="834" y="230">n034</text>
  <text class="id" x="857" y="269">n035</text>
  <text class="pin" x="857" y="279">+</text>
  <text class="id" x="875" y="250">n036</text>
  <text class="pin" x="875" y="260">mont</text>
  <text class="id end" x="945" y="250">n037</text>
  <text class="pin end" x="945" y="260">desc</text>
  <text class="idn end" x="484" y="266">n364</text>
  <text class="idn end" x="484" y="306">n365</text>
  <text class="idn end" x="544" y="320">n368</text>
  <text class="idn" x="584" y="320">n369</text>
  <text class="idn end" x="636" y="322">n370</text>
  <text class="idn" x="704" y="322">n371</text>
  <text class="idn" x="676" y="330">n379</text>
  <text class="idn end" x="491" y="384">n360</text>
  <text class="pin end" x="491" y="394">e+</text>
  <text class="idn" x="405" y="454">n361</text>
  <text class="pin" x="405" y="464">s+</text>
  <text class="idn" x="367" y="449">n362</text>
  <text class="pin" x="367" y="459">−</text>
  <text class="idn end" x="593" y="449">n363</text>
  <text class="pin end" x="593" y="459">H</text>
  <text class="idn end" x="388" y="504">n367</text>
  <text class="idn end" x="388" y="540">n366</text>
  <text class="idn end" x="233" y="524">n372</text>
  <text class="pin end" x="233" y="534">s+</text>
  <text class="idn" x="47" y="524">n373</text>
  <text class="pin" x="47" y="534">s−</text>
  <text class="idn mid" x="314" y="614">n378</text>
  <text class="idn mid" x="360" y="614">n377</text>
  <text class="idn end" x="183" y="669">n007</text>
  <text class="pin end" x="183" y="679">+</text>
  <text class="idn" x="55" y="684">n008</text>
  <text class="pin" x="55" y="694">−</text>
  <text class="idn end" x="230" y="688">n072</text>
  <text class="idn" x="282" y="658">n073</text>
  <text class="id" x="428" y="700">n009</text>
  <text class="id end" x="482" y="714">n010</text>
  <text class="idn" x="55" y="764">n086</text>
  <text class="pin" x="55" y="774">− bat</text>
  <text class="idn" x="115" y="804">n087</text>
  <text class="pin" x="115" y="814">− sys</text>
  <text class="idn end" x="213" y="769">n088</text>
  <text class="pin end" x="213" y="779">Vbat+</text>
  <text class="idn end" x="213" y="801">n089</text>
  <text class="pin end" x="213" y="811">aux</text>
  <text class="idn end" x="396" y="704">n090</text>
  <text class="idn end" x="396" y="740">n091</text>
  <text class="idn end" x="254" y="822">n093</text>
  <text class="idn" x="298" y="822">n092</text>
  <text class="idn end" x="558" y="630">n082</text>
  <text class="idn" x="608" y="630">n083</text>
  <text class="id" x="887" y="609">n100</text>
  <text class="pin" x="887" y="619">+</text>
  <text class="id end" x="1093" y="609">n101</text>
  <text class="pin end" x="1093" y="619">−</text>
  <text class="idn mid" x="520" y="658">n308</text>
  <text class="idn" x="568" y="690">n309</text>
  <text class="idn" x="767" y="689">n310</text>
  <text class="pin" x="767" y="699">30</text>
  <text class="idn end" x="853" y="689">n311</text>
  <text class="pin end" x="853" y="699">87</text>
  <text class="idn" x="927" y="689">n318</text>
  <text class="pin" x="927" y="699">+</text>
  <text class="idn end" x="1093" y="689">n319</text>
  <text class="pin end" x="1093" y="699">−</text>
  <text class="idn end" x="538" y="850">n084</text>
  <text class="idn" x="588" y="850">n085</text>
  <text class="id" x="657" y="829">n050</text>
  <text class="pin" x="657" y="839">+</text>
  <text class="id end" x="813" y="829">n052</text>
  <text class="pin end" x="813" y="839">frigo</text>
  <text class="id" x="695" y="827">n053</text>
  <text class="pin" x="695" y="837">cale</text>
  <text class="id end" x="765" y="827">n051</text>
  <text class="pin end" x="765" y="837">−</text>
  <text class="id" x="887" y="829">n042</text>
  <text class="pin" x="887" y="839">bat +</text>
  <text class="id" x="887" y="854">n043</text>
  <text class="pin" x="887" y="864">bat −</text>
  <text class="id end" x="973" y="829">n044</text>
  <text class="pin end" x="973" y="839">gf +</text>
  <text class="id end" x="973" y="854">n045</text>
  <text class="pin end" x="973" y="864">gf −</text>
  <text class="id" x="1017" y="829">n040</text>
  <text class="pin" x="1017" y="839">+</text>
  <text class="id" x="1017" y="854">n041</text>
  <text class="pin" x="1017" y="864">−</text>
  <text class="id end" x="684" y="898">n056</text>
  <text class="pin end" x="684" y="908">+</text>
  <text class="id" x="712" y="938">n057</text>
  <text class="pin" x="712" y="948">−</text>
  <text class="id end" x="374" y="982">n005</text>
  <text class="id" x="446" y="1010">n006</text>
  <text class="ts mid" x="1110" y="44">Guindeau 700 W</text>
  <text class="ts mid" x="870" y="720">commande du ballon (folio 2n) : fusible 1 A n314 / n315 monté sur n310,</text>
  <text class="ts mid" x="870" y="734">interrupteur à voyant n316 / n317 / n380</text>
  <text class="idn mid" x="870" y="750">w309 n315 → n316 · w310 n317 → n312</text>
  <text class="idn mid" x="870" y="764">w311 n313 → n319 · w312 n380 → n319</text>
  <text class="ts mid" x="200" y="1010">côté batteries (avant le shunt)</text>
  <text class="ts mid" x="620" y="1010">masse des charges</text>
  <text class="ts" x="20" y="1044">En vert : nouveau par rapport au relevé. Identifiants gris : câbles existants, conservés ou repris sur un fusible. En pointillés bleus : section inconnue.</text>
  <text class="ts" x="20" y="1062">Détail : folios 2c (fusibles), 2e (shunt), 2h et 2i (Orion XS, Blue Smart, guindeau), 2n (ballon). Hypothèses appliquées : cible/cible.yaml. Sections et chutes de tension : commun/dimensionnement.md.</text>
  <g class="mk-q"><circle cx="370" cy="196" r="11"/><text class="mid" x="370" y="199.5">Q58</text></g>
  <g class="mk-q"><circle cx="780" cy="160" r="11"/><text class="mid" x="780" y="163.5">Q14</text></g>
  <g class="mk-q"><circle cx="1004" cy="182" r="11"/><text class="mid" x="1004" y="185.5">Q59</text></g>
  <g class="mk-q"><circle cx="346" cy="696" r="11"/><text class="mid" x="346" y="699.5">Q58</text></g>
  <g class="mk-q"><circle cx="840" cy="610" r="11"/><text class="mid" x="840" y="613.5">Q58</text></g>
  <g class="mk-q"><circle cx="700" cy="670" r="11"/><text class="mid" x="700" y="673.5">Q57</text></g>
</svg>
