<svg xmlns="http://www.w3.org/2000/svg" viewBox="0 0 1200 920" role="img" aria-label="Câblage 12 V actuel : deux batteries, quatre coupe-circuits, coupleur et chargeur branchés sans fusible, tableau de servitude alimenté sans protection depuis la sortie du coupe-circuit de servitude, tableau Scheiber alimenté directement par les coupe-circuits.">
  <title>Folio 1 · Câblage 12 V actuel</title>
  <desc>Tout part des batteries sans fusible. Le tableau de la table à carte est alimenté en 6 mm² directement par la sortie du coupe-circuit de servitude, donc sans aucune protection (A1). Le tableau Scheiber (frigo, pompe de cale) est lui aussi alimenté en 6 mm² directement par les coupe-circuits, sans fusible (A6), la pompe de cale est protégée en 10 A au lieu de 3 A (A10), et la liaison EPS 100 → groupe froid est vissée sans cosse (A7). Le coupleur prend sa masse côté charges : quand on ouvre le coupe-circuit des négatifs, sa bobine n&#x27;est plus alimentée. La batterie de servitude, au plomb, est dans un coffre peu aéré sous le matelas de la cabine de poupe (A11).</desc>
  <style>
    /* Style autonome : retiré par outils/page.py quand le folio est intégré à la page HTML. */
    svg{--sheet:#fbfcfd;--ink:#18212b;--muted:#5a6776;--pos:#c8231c;--unk:#1f6fbf;--warn:#e58a00;--on-warn:#1a1206;--new:#1d8a4a;--new-soft:#e2f3e8;--zone:#e8edf2;--ph:#8a5a2b;--ne:#2563c4;--pe:#2f9e44;--pey:#e6b800}
    @media (prefers-color-scheme: dark){svg{--sheet:#151b22;--ink:#e3e8ee;--muted:#93a1b0;--pos:#ff5a4f;--unk:#5aa9f5;--warn:#ffa53d;--new:#4fcf85;--new-soft:#15301f;--zone:#1f2832;--ph:#c8915a;--ne:#6aa7ff;--pe:#51cf66;--pey:#ffd43b}}
    .bg{fill:var(--sheet)}
    text{font-family:"IBM Plex Sans Condensed","Arial Narrow","Roboto Condensed",sans-serif;fill:var(--ink)}
    .t{font-size:12.5px}.tb{font-size:13px;font-weight:600}.ts{font-size:11.5px;fill:var(--muted)}
    .id,.idn,.pin{font-family:"IBM Plex Mono",Consolas,monospace}
    .id{font-size:10.5px;fill:var(--muted)}.idn{font-size:10.5px;fill:var(--new)}.pin{font-size:8.5px;fill:var(--ink)}
    .tu{fill:var(--unk)}.tn{fill:var(--new)}.mid{text-anchor:middle}.end{text-anchor:end}
    .p,.n,.u,.lever,.bound,.ph,.ne,.pe,.pey,.leader{fill:none;stroke-linecap:round;stroke-linejoin:round}
    .p{stroke:var(--pos)}.n{stroke:var(--ink)}
    .ph{stroke:var(--ph)}.ne{stroke:var(--ne)}.pe{stroke:var(--pe)}.pey{stroke:var(--pey);stroke-dasharray:6 6;stroke-linecap:butt}
    .u{stroke:var(--unk);stroke-width:1.6;stroke-dasharray:6 4}
    .bound{stroke:var(--muted);stroke-width:1;stroke-dasharray:2 4}
    .w1{stroke-width:1.3}.w2{stroke-width:2}.w3{stroke-width:2.8}.w4{stroke-width:4}.w5{stroke-width:5.5}
    .box{fill:var(--sheet);stroke:var(--ink);stroke-width:1.4}
    .box-new{fill:var(--new-soft);stroke:var(--new);stroke-width:1.6}
    .box-unk{fill:var(--sheet);stroke:var(--unk);stroke-width:1.5;stroke-dasharray:6 4}
    .fuse{fill:var(--sheet);stroke:var(--ink);stroke-width:1.3}
    .fuse-new{fill:var(--new-soft);stroke:var(--new);stroke-width:1.6}
    .dp{fill:var(--pos)}.dn{fill:var(--ink)}
    .term{fill:var(--sheet);stroke:var(--ink);stroke-width:1.4}
    .lever{stroke:var(--ink);stroke-width:2}
    .sw{fill:none;stroke:var(--muted);stroke-width:1;stroke-dasharray:5 3}
    .flag{fill:var(--sheet);stroke:var(--ink);stroke-width:1.2}
    .flag-new{fill:var(--new-soft);stroke:var(--new);stroke-width:1.4}
    .hull{fill:var(--sheet);stroke:var(--ink);stroke-width:2}
    .zone{fill:var(--zone);stroke:var(--muted);stroke-width:1}
    .zone-pont{fill:none;stroke:var(--muted);stroke-width:1.2;stroke-dasharray:4 3}
    .leader{stroke:var(--muted);stroke-width:1}
    .callout{fill:var(--sheet);stroke:var(--ink);stroke-width:1.2}
    .mk-a circle{fill:var(--warn)}
    .mk-a text{fill:var(--on-warn);font-family:"IBM Plex Mono",Consolas,monospace;font-size:9.5px;font-weight:500}
    .mk-q circle{fill:var(--sheet);stroke:var(--unk);stroke-width:1.5}
    .mk-q text{fill:var(--unk);font-family:"IBM Plex Mono",Consolas,monospace;font-size:9.5px;font-weight:500}
  </style>
  <rect class="bg" x="0" y="0" width="100%" height="100%"/>
  <!-- Généré par outils/folio.py depuis folio-1-actuel.yaml : ne pas modifier à la main. -->
  <rect class="u" x="785" y="252" width="255" height="160" rx="4"/>
  <text class="ts tu" x="788" y="244">télécommande : sections à relever (Q59)</text>
  <rect class="box" x="60" y="60" width="130" height="80" rx="2"/>
  <text class="tb mid" x="125" y="80">Batterie moteur</text>
  <text class="ts mid" x="125" y="95">Varta 110 Ah · Pb</text>
  <rect class="box" x="60" y="430" width="130" height="90" rx="2"/>
  <text class="tb mid" x="125" y="450">Batterie servitude</text>
  <text class="ts mid" x="125" y="465">110 Ah · Pb</text>
  <rect class="sw" x="430" y="104" width="60" height="32" rx="2"/>
  <path class="lever" d="M430 120 L487 107"/>
  <text class="ts mid" x="460" y="96">CC moteur +</text>
  <rect class="sw" x="430" y="464" width="60" height="32" rx="2"/>
  <path class="lever" d="M430 480 L487 467"/>
  <text class="ts mid" x="460" y="456">CC servitude +</text>
  <rect class="sw" x="544" y="190" width="32" height="60" rx="2"/>
  <path class="lever" d="M560 190 L571 247"/>
  <text class="ts " x="584" y="224">CC couplage</text>
  <rect class="sw" x="240" y="864" width="60" height="32" rx="2"/>
  <path class="lever" d="M240 880 L297 867"/>
  <text class="ts mid" x="270" y="856">CC masse (−)</text>
  <rect class="box" x="195" y="220" width="130" height="120" rx="2"/>
  <text class="tb mid" x="260" y="260">Chargeur quai</text>
  <text class="ts mid" x="260" y="275">Dolphin 12 V · 20 A</text>
  <text class="ts mid" x="260" y="290">3 sorties · Pb</text>
  <text class="ts mid" x="260" y="305">sortie 3 libre</text>
  <rect class="box" x="335" y="230" width="135" height="110" rx="2"/>
  <text class="tb mid" x="402.5" y="270">Coupleur</text>
  <text class="ts mid" x="402.5" y="285">Scheiber 38.14700</text>
  <text class="ts mid" x="402.5" y="300">relais · Pb</text>
  <rect class="box" x="620" y="70" width="170" height="100" rx="2"/>
  <text class="tb mid" x="705" y="90">Yanmar 3GMD</text>
  <text class="ts mid" x="705" y="105">démarreur + alternateur</text>
  <rect class="box-unk" x="880" y="70" width="200" height="60" rx="2"/>
  <text class="tb mid" x="980" y="95">Tableau moteur</text>
  <text class="ts mid" x="980" y="110">contact · jauges</text>
  <rect class="fuse" x="690" y="471" width="60" height="18"/>
  <text class="id mid" x="720" y="484">70 A</text>
  <text class="ts mid" x="720" y="458">Disjoncteur guindeau</text>
  <rect class="box" x="850" y="420" width="170" height="120" rx="2"/>
  <text class="tb mid" x="935" y="470">Relais</text>
  <text class="ts mid" x="935" y="485">guindeau</text>
  <circle class="box" cx="1100" cy="480" r="26"/>
  <text class="tb mid" x="1100" y="485">M</text>
  <rect class="fuse" x="822" y="300" width="16" height="40"/>
  <text class="id end" x="818" y="324">5 A</text>
  <rect class="box-unk" x="860" y="260" width="170" height="90" rx="2"/>
  <text class="tb mid" x="945" y="290">Télécommande</text>
  <text class="ts mid" x="945" y="305">+ pris au relais</text>
  <rect class="box" x="385" y="590" width="150" height="100" rx="2"/>
  <text class="tb mid" x="460" y="630">Tableau</text>
  <text class="ts mid" x="460" y="645">table à carte</text>
  <text class="ts mid" x="460" y="660">12 circuits · folio 2b</text>
  <rect class="box" x="560" y="580" width="200" height="100" rx="2"/>
  <text class="tb mid" x="660" y="620">Tableau Scheiber</text>
  <text class="ts mid" x="660" y="635">2 voies · contremarche</text>
  <text class="ts mid" x="660" y="650">cale 10 A · frigo 15 A</text>
  <circle class="box" cx="575" cy="770" r="20"/>
  <text class="tb mid" x="575" y="775">P</text>
  <rect class="box" x="730" y="750" width="120" height="100" rx="2"/>
  <text class="tb mid" x="790" y="790">EPS 100</text>
  <text class="ts mid" x="790" y="805">12 V / 230 V</text>
  <rect class="box" x="910" y="750" width="90" height="100" rx="2"/>
  <text class="tb mid" x="955" y="795">Groupe froid</text>
  <text class="ts mid" x="955" y="810">CU-55</text>
  <path class="p w4" d="M260 120 H430"/>
  <path class="p w4" d="M260 480 H430"/>
  <path class="p w4" d="M490 480 H620"/>
  <path class="n w4" d="M300 880 H1185"/>
  <path class="n w2" d="M660 680 V830"/>
  <path class="u" d="M790 100 L880 100"/>
  <path class="p w4" d="M190 120 L260 120"/>
  <text class="id mid" x="225" y="112">w001 · 35</text>
  <path class="p w2" d="M300 120 L300 220"/>
  <text class="id mid" x="312" y="175" transform="rotate(-90 312 175)">w003 · 6</text>
  <path class="p w2" d="M400 120 L400 230"/>
  <text class="id mid" x="412" y="175" transform="rotate(-90 412 175)">w002 · 6</text>
  <path class="p w4" d="M490 120 L620 120"/>
  <text class="id mid" x="572" y="112">w012 · 35</text>
  <path class="p w4" d="M490 120 L560 190"/>
  <text class="id" x="532" y="152">w010 · 35</text>
  <path class="p w4" d="M190 480 L260 480"/>
  <text class="id mid" x="225" y="472">w006 · 35</text>
  <path class="p w2" d="M300 480 L300 340"/>
  <text class="id mid" x="312" y="410" transform="rotate(-90 312 410)">w008 · 6</text>
  <path class="p w2" d="M400 480 L400 340"/>
  <text class="id mid" x="412" y="390" transform="rotate(-90 412 390)">w007 · 6</text>
  <path class="p w4" d="M418 480 L418 430 L560 430 L560 250"/>
  <text class="id mid" x="490" y="422">w011 · 35</text>
  <path class="p w4" d="M620 480 L690 480"/>
  <text class="id mid" x="655" y="472">w017 · 35</text>
  <path class="p w5" d="M750 480 L850 480"/>
  <text class="id mid" x="800" y="472">w018 · 50</text>
  <path class="p w2" d="M510 480 L510 590"/>
  <text class="id mid" x="522" y="555" transform="rotate(-90 522 555)">w019 · 6</text>
  <path class="p w2" d="M600 480 L600 580"/>
  <text class="id mid" x="612" y="555" transform="rotate(-90 612 555)">w022 · 6</text>
  <path class="p w3" d="M1020 460 L1083.4 460"/>
  <text class="id mid" x="1051" y="452">w020 · 10</text>
  <path class="n w3" d="M1020 500 L1083.4 500"/>
  <text class="id mid" x="1051" y="516">w021 · 10</text>
  <path class="u" d="M850 480 L830 460 L830 340"/>
  <text class="id mid" x="822" y="400" transform="rotate(-90 822 400)">w061</text>
  <path class="u" d="M830 300 L830 285 L860 285"/>
  <text class="id mid" x="845" y="279">w062</text>
  <path class="u" d="M890 350 L890 420"/>
  <text class="id mid" x="902" y="385" transform="rotate(-90 902 385)">w063</text>
  <path class="u" d="M970 350 L970 420"/>
  <text class="id mid" x="982" y="385" transform="rotate(-90 982 385)">w064</text>
  <path class="p w2" d="M575 680 L575 750"/>
  <text class="id mid" x="587" y="712" transform="rotate(-90 587 712)">w026 · 2,5</text>
  <path class="n w2" d="M595 770 L660 770"/>
  <text class="id mid" x="628" y="786">w036 · 2,5</text>
  <path class="p w2" d="M740 680 L740 750"/>
  <text class="id mid" x="752" y="715" transform="rotate(-90 752 715)">w024 · 3,5</text>
  <path class="n w2" d="M660 830 L730 830"/>
  <text class="id mid" x="695" y="822">w025 · 3,5</text>
  <path class="p w2" d="M850 770 L910 770"/>
  <text class="id mid" x="880" y="744">w027 / w028 · 3,5</text>
  <path class="n w2" d="M850 830 L910 830"/>
  <path class="n w4" d="M60 120 L20 120 L20 880 L240 880"/>
  <text class="id mid" x="32" y="300" transform="rotate(-90 32 300)">w004 · 35</text>
  <path class="n w4" d="M215 340 L215 390 L40 390 L40 880 L240 880"/>
  <text class="id mid" x="52" y="640" transform="rotate(-90 52 640)">w005 · 35</text>
  <path class="n w4" d="M100 520 L100 880 L240 880"/>
  <text class="id mid" x="112" y="700" transform="rotate(-90 112 700)">w009 · 35</text>
  <path class="n w2" d="M360 880 L360 340"/>
  <text class="id mid" x="372" y="620" transform="rotate(-90 372 620)">w014 · 6</text>
  <path class="n w2" d="M410 880 L410 690"/>
  <text class="id mid" x="402" y="790" transform="rotate(-90 402 790)">w016 · 6</text>
  <path class="n w2" d="M660 880 L660 830"/>
  <text class="id mid" x="672" y="855" transform="rotate(-90 672 855)">w023 · 6</text>
  <path class="n w5" d="M1010 880 L1010 540"/>
  <text class="id mid" x="1022" y="700" transform="rotate(-90 1022 700)">w015 · 50</text>
  <path class="n w4" d="M1185 880 L1185 200 L760 200 L760 170"/>
  <text class="id mid" x="1178" y="700" transform="rotate(-90 1178 700)">w013 · 35</text>
  <circle class="term" cx="190" cy="120" r="3.5"/>
  <circle class="term" cx="60" cy="120" r="3.5"/>
  <circle class="term" cx="190" cy="480" r="3.5"/>
  <circle class="term" cx="100" cy="520" r="3.5"/>
  <circle class="term" cx="430" cy="120" r="3.5"/>
  <circle class="term" cx="490" cy="120" r="3.5"/>
  <circle class="term" cx="430" cy="480" r="3.5"/>
  <circle class="term" cx="490" cy="480" r="3.5"/>
  <circle class="term" cx="560" cy="190" r="3.5"/>
  <circle class="term" cx="560" cy="250" r="3.5"/>
  <circle class="term" cx="240" cy="880" r="3.5"/>
  <circle class="term" cx="300" cy="880" r="3.5"/>
  <circle class="term" cx="300" cy="220" r="3.5"/>
  <circle class="term" cx="300" cy="340" r="3.5"/>
  <circle class="term" cx="215" cy="340" r="3.5"/>
  <circle class="term" cx="400" cy="230" r="3.5"/>
  <circle class="term" cx="400" cy="340" r="3.5"/>
  <circle class="term" cx="360" cy="340" r="3.5"/>
  <circle class="term" cx="620" cy="120" r="3.5"/>
  <circle class="term" cx="760" cy="170" r="3.5"/>
  <circle class="term" cx="690" cy="480" r="3.5"/>
  <circle class="term" cx="750" cy="480" r="3.5"/>
  <circle class="term" cx="850" cy="480" r="3.5"/>
  <circle class="term" cx="1020" cy="460" r="3.5"/>
  <circle class="term" cx="1020" cy="500" r="3.5"/>
  <circle class="term" cx="1010" cy="540" r="3.5"/>
  <circle class="term" cx="890" cy="420" r="3.5"/>
  <circle class="term" cx="970" cy="420" r="3.5"/>
  <circle class="term" cx="1083.4" cy="460" r="3.5"/>
  <circle class="term" cx="1083.4" cy="500" r="3.5"/>
  <circle class="term" cx="830" cy="300" r="3.5"/>
  <circle class="term" cx="830" cy="340" r="3.5"/>
  <circle class="term" cx="860" cy="285" r="3.5"/>
  <circle class="term" cx="890" cy="350" r="3.5"/>
  <circle class="term" cx="970" cy="350" r="3.5"/>
  <circle class="term" cx="510" cy="590" r="3.5"/>
  <circle class="term" cx="410" cy="690" r="3.5"/>
  <circle class="term" cx="600" cy="580" r="3.5"/>
  <circle class="term" cx="575" cy="680" r="3.5"/>
  <circle class="term" cx="660" cy="680" r="3.5"/>
  <circle class="term" cx="740" cy="680" r="3.5"/>
  <circle class="term" cx="575" cy="750" r="3.5"/>
  <circle class="term" cx="595" cy="770" r="3.5"/>
  <circle class="term" cx="740" cy="750" r="3.5"/>
  <circle class="term" cx="730" cy="830" r="3.5"/>
  <circle class="term" cx="850" cy="770" r="3.5"/>
  <circle class="term" cx="850" cy="830" r="3.5"/>
  <circle class="term" cx="910" cy="770" r="3.5"/>
  <circle class="term" cx="910" cy="830" r="3.5"/>
  <text class="id end" x="183" y="119">n001</text>
  <text class="pin end" x="183" y="129">+</text>
  <text class="id" x="67" y="119">n002</text>
  <text class="pin" x="67" y="129">−</text>
  <text class="id end" x="183" y="479">n007</text>
  <text class="pin end" x="183" y="489">+</text>
  <text class="id" x="105" y="504">n008</text>
  <text class="pin" x="105" y="514">−</text>
  <text class="id end" x="424" y="112">n003</text>
  <text class="id" x="496" y="112">n004</text>
  <text class="id end" x="424" y="498">n009</text>
  <text class="id" x="496" y="472">n010</text>
  <text class="id" x="568" y="188">n012</text>
  <text class="id" x="568" y="260">n011</text>
  <text class="id end" x="234" y="898">n005</text>
  <text class="id" x="306" y="898">n006</text>
  <text class="id end" x="295" y="234">n016</text>
  <text class="pin end" x="295" y="244">s1</text>
  <text class="id end" x="295" y="324">n017</text>
  <text class="pin end" x="295" y="334">s2</text>
  <text class="id" x="220" y="324">n018</text>
  <text class="pin" x="220" y="334">−</text>
  <text class="id" x="405" y="244">n013</text>
  <text class="pin" x="405" y="254">bat mot</text>
  <text class="id" x="405" y="324">n014</text>
  <text class="pin" x="405" y="334">bat serv</text>
  <text class="id" x="365" y="324">n015</text>
  <text class="pin" x="365" y="334">−</text>
  <text class="id" x="627" y="119">n031</text>
  <text class="pin" x="627" y="129">+</text>
  <text class="id end" x="755" y="154">n032</text>
  <text class="pin end" x="755" y="164">−</text>
  <text class="id end" x="686" y="500">n020</text>
  <text class="id" x="754" y="500">n021</text>
  <text class="id" x="857" y="479">n022</text>
  <text class="pin" x="857" y="489">e+</text>
  <text class="id end" x="1013" y="459">n024</text>
  <text class="pin end" x="1013" y="469">A</text>
  <text class="id end" x="1013" y="499">n025</text>
  <text class="pin end" x="1013" y="509">B</text>
  <text class="id end" x="1005" y="524">n023</text>
  <text class="pin end" x="1005" y="534">e−</text>
  <text class="id" x="895" y="434">n026</text>
  <text class="pin" x="895" y="444">mont</text>
  <text class="id end" x="965" y="434">n027</text>
  <text class="pin end" x="965" y="444">desc</text>
  <text class="id" x="1083.4" y="440">n029</text>
  <text class="pin" x="1083.4" y="450">A</text>
  <text class="id" x="1083.4" y="516">n030</text>
  <text class="pin" x="1083.4" y="526">B</text>
  <text class="id end" x="820" y="298">n034</text>
  <text class="id end" x="820" y="352">n033</text>
  <text class="id" x="867" y="284">n035</text>
  <text class="pin" x="867" y="294">+</text>
  <text class="id" x="895" y="334">n036</text>
  <text class="pin" x="895" y="344">mont</text>
  <text class="id end" x="965" y="334">n037</text>
  <text class="pin end" x="965" y="344">desc</text>
  <text class="id end" x="505" y="604">n100</text>
  <text class="pin end" x="505" y="614">+</text>
  <text class="id" x="415" y="674">n101</text>
  <text class="pin" x="415" y="684">−</text>
  <text class="id" x="605" y="594">n050</text>
  <text class="pin" x="605" y="604">+</text>
  <text class="id" x="580" y="664">n053</text>
  <text class="pin" x="580" y="674">pompe</text>
  <text class="id" x="665" y="664">n051</text>
  <text class="pin" x="665" y="674">−</text>
  <text class="id end" x="735" y="664">n052</text>
  <text class="pin end" x="735" y="674">frigo</text>
  <text class="id end" x="569" y="742">n056</text>
  <text class="pin end" x="569" y="752">+</text>
  <text class="id" x="599" y="756">n057</text>
  <text class="pin" x="599" y="766">−</text>
  <text class="id" x="745" y="764">n042</text>
  <text class="pin" x="745" y="774">+</text>
  <text class="id" x="737" y="829">n043</text>
  <text class="pin" x="737" y="839">−</text>
  <text class="id end" x="843" y="769">n044</text>
  <text class="pin end" x="843" y="779">GF +</text>
  <text class="id end" x="843" y="829">n045</text>
  <text class="pin end" x="843" y="839">GF −</text>
  <text class="id" x="917" y="769">n040</text>
  <text class="pin" x="917" y="779">+</text>
  <text class="id" x="917" y="829">n041</text>
  <text class="pin" x="917" y="839">−</text>
  <text class="ts end" x="190" y="270">entrée 230 V : folio 3</text>
  <text class="id end" x="190" y="285">n200 · n201 · n202</text>
  <text class="ts mid tu" x="980" y="150">alimenté par le câble du démarreur ?</text>
  <text class="ts mid tu" x="980" y="166">fusible ?</text>
  <text class="tb mid" x="1100" y="545">Guindeau Lewmar</text>
  <text class="ts mid" x="1100" y="560">Pro-Series 1000 · 700 W</text>
  <text class="tb end" x="550" y="765">Pompe de cale</text>
  <text class="ts end" x="550" y="780">Attwood Tsunami T500</text>
  <text class="ts end" x="550" y="795">sans flotteur,</text>
  <text class="ts end" x="550" y="810">mise en route manuelle</text>
  <text class="ts mid" x="720" y="905">node006 · masse côté charges</text>
  <g class="mk-a"><circle cx="205" cy="88" r="11"/><text class="mid" x="205" y="91.5">A2</text></g>
  <g class="mk-a"><circle cx="229" cy="88" r="11"/><text class="mid" x="229" y="91.5">A3</text></g>
  <g class="mk-q"><circle cx="253" cy="88" r="11"/><text class="mid" x="253" y="91.5">Q58</text></g>
  <g class="mk-a"><circle cx="350" cy="180" r="11"/><text class="mid" x="350" y="183.5">A4</text></g>
  <g class="mk-a"><circle cx="205" cy="448" r="11"/><text class="mid" x="205" y="451.5">A2</text></g>
  <g class="mk-a"><circle cx="229" cy="448" r="11"/><text class="mid" x="229" y="451.5">A11</text></g>
  <g class="mk-q"><circle cx="253" cy="448" r="11"/><text class="mid" x="253" y="451.5">Q58</text></g>
  <g class="mk-a"><circle cx="510" cy="512" r="11"/><text class="mid" x="510" y="515.5">A1</text></g>
  <g class="mk-q"><circle cx="486" cy="512" r="11"/><text class="mid" x="486" y="515.5">Q58</text></g>
  <g class="mk-a"><circle cx="624" cy="512" r="11"/><text class="mid" x="624" y="515.5">A6</text></g>
  <g class="mk-q"><circle cx="648" cy="512" r="11"/><text class="mid" x="648" y="515.5">Q58</text></g>
  <g class="mk-a"><circle cx="553" cy="715" r="11"/><text class="mid" x="553" y="718.5">A10</text></g>
  <g class="mk-a"><circle cx="880" cy="800" r="11"/><text class="mid" x="880" y="803.5">A7</text></g>
  <g class="mk-q"><circle cx="1080" cy="70" r="11"/><text class="mid" x="1080" y="73.5">Q1</text></g>
  <g class="mk-q"><circle cx="1040" cy="252" r="11"/><text class="mid" x="1040" y="255.5">Q59</text></g>
</svg>
