<svg xmlns="http://www.w3.org/2000/svg" viewBox="0 0 1200 640" role="img" aria-label="Réseau 230 V en unifilaire : prise de quai, boîtier d'arrivée avec différentiel 30 mA, chargeur, boîtier de distribution tribord et boîte de dérivation bâbord alimentant prises et plafonnier.">
  <title>Folio 3 · Réseau 230 V</title>
  <desc>L'arrivée (différentiel 30 mA en tête, 10 A pour le chargeur, 16 A pour le reste) alimente le boîtier de distribution tribord, dans le cabinet de toilette : 10 A pour l'éclairage, 16 A pour les prises tribord, 16 A pour les prises bâbord, qui passent par une simple boîte de dérivation, et un second 10 A dont le circuit est à identifier (Q42). Tous les disjoncteurs coupent la phase et le neutre. La terre arrive aux prises, au chargeur et au plafonnier (le cordon de l'EPS 100 n'en a pas), et elle n'est reliée ni à la masse 12 V ni à un isolateur galvanique (A8). Aux bornes du port de Saint-Chamas, la prise fournit 16 A, soit environ 3 700 W pour tout le bord ; en escale, le calibre est souvent plus faible.</desc>
  <style>
    /* Style autonome : retiré par outils/page.py quand le folio est intégré à la page HTML. */
    svg{--sheet:#fbfcfd;--ink:#18212b;--muted:#5a6776;--pos:#c8231c;--unk:#1f6fbf;--warn:#e58a00;--on-warn:#1a1206;--new:#1d8a4a;--new-soft:#e2f3e8;--zone:#e8edf2;--ph:#8a5a2b;--ne:#2563c4;--pe:#2f9e44;--pey:#e6b800}
    @media (prefers-color-scheme: dark){svg{--sheet:#151b22;--ink:#e3e8ee;--muted:#93a1b0;--pos:#ff5a4f;--unk:#5aa9f5;--warn:#ffa53d;--new:#4fcf85;--new-soft:#15301f;--zone:#1f2832;--ph:#c8915a;--ne:#6aa7ff;--pe:#51cf66;--pey:#ffd43b}}
    .bg{fill:var(--sheet)}
    text{font-family:"IBM Plex Sans Condensed","Arial Narrow","Roboto Condensed",sans-serif;fill:var(--ink)}
    .t{font-size:12.5px}.tb{font-size:13px;font-weight:600}.ts{font-size:11.5px;fill:var(--muted)}
    .id,.idn,.pin{font-family:"IBM Plex Mono",Consolas,monospace}
    .id{font-size:10.5px;fill:var(--muted)}.idn{font-size:10.5px;fill:var(--new)}.pin{font-size:8.5px;fill:var(--ink)}
    .tu{fill:var(--unk)}.tn{fill:var(--new)}.mid{text-anchor:middle}.end{text-anchor:end}
    .p,.n,.u,.lever,.bound,.ph,.ne,.pe,.pey,.leader{fill:none;stroke-linecap:round;stroke-linejoin:round}
    .p{stroke:var(--pos)}.n{stroke:var(--ink)}
    .ph{stroke:var(--ph)}.ne{stroke:var(--ne)}.pe{stroke:var(--pe)}.pey{stroke:var(--pey);stroke-dasharray:6 6;stroke-linecap:butt}
    .u{stroke:var(--unk);stroke-width:1.6;stroke-dasharray:6 4}
    .bound{stroke:var(--muted);stroke-width:1;stroke-dasharray:2 4}
    .w1{stroke-width:1.3}.w2{stroke-width:2}.w3{stroke-width:2.8}.w4{stroke-width:4}.w5{stroke-width:5.5}
    .box{fill:var(--sheet);stroke:var(--ink);stroke-width:1.4}
    .box-new{fill:var(--new-soft);stroke:var(--new);stroke-width:1.6}
    .box-unk{fill:var(--sheet);stroke:var(--unk);stroke-width:1.5;stroke-dasharray:6 4}
    .fuse{fill:var(--sheet);stroke:var(--ink);stroke-width:1.3}
    .fuse-new{fill:var(--new-soft);stroke:var(--new);stroke-width:1.6}
    .dp{fill:var(--pos)}.dn{fill:var(--ink)}
    .term{fill:var(--sheet);stroke:var(--ink);stroke-width:1.4}
    .lever{stroke:var(--ink);stroke-width:2}
    .flag{fill:var(--sheet);stroke:var(--ink);stroke-width:1.2}
    .flag-new{fill:var(--new-soft);stroke:var(--new);stroke-width:1.4}
    .hull{fill:var(--sheet);stroke:var(--ink);stroke-width:2}
    .zone{fill:var(--zone);stroke:var(--muted);stroke-width:1}
    .zone-pont{fill:none;stroke:var(--muted);stroke-width:1.2;stroke-dasharray:4 3}
    .leader{stroke:var(--muted);stroke-width:1}
    .callout{fill:var(--sheet);stroke:var(--ink);stroke-width:1.2}
    .mk-a circle{fill:var(--warn)}
    .mk-a text{fill:var(--on-warn);font-family:"IBM Plex Mono",Consolas,monospace;font-size:9.5px;font-weight:500}
    .mk-q circle{fill:var(--sheet);stroke:var(--unk);stroke-width:1.5}
    .mk-q text{fill:var(--unk);font-family:"IBM Plex Mono",Consolas,monospace;font-size:9.5px;font-weight:500}
  </style>
  <rect class="bg" x="0" y="0" width="100%" height="100%"/>
  <!-- ============ Arrivée ============ -->
  <rect class="box" x="40" y="100" width="130" height="80" rx="2"/>
  <text class="tb mid" x="105" y="125">Prise de quai</text>
  <text class="ts mid" x="105" y="142">EU · banc tribord</text>
  <text class="id mid" x="105" y="170">node203–205</text>
  <text class="tb mid" x="105" y="212">Bornes du port : 16 A</text>
  <text class="ts mid" x="105" y="229">≈ 3 700 W pour tout le bord</text>
  <text class="ts mid" x="105" y="246">souvent moins en escale</text>

  <path class="n w2" d="M170 140 H330"/>
  <path class="n w1" d="M244 147 L252 133 M249 147 L257 133 M254 147 L262 133"/>
  <text class="id mid" x="250" y="116">wire029 · wire030</text>
  <text class="id mid" x="250" y="128">wire034 · 3 × 2,5</text>

  <rect class="bound" x="312" y="62" width="398" height="193"/>
  <text class="ts" x="320" y="248">Boîtier d'arrivée · coffre de cockpit tribord · terre : node212</text>
  <g class="mk-a"><circle cx="710" cy="62" r="10"/><text class="mid" x="710" y="65.5">A8</text></g>
  <rect class="box" x="330" y="110" width="100" height="60" rx="2"/>
  <text class="tb mid" x="380" y="136">Différentiel</text>
  <text class="ts mid" x="380" y="153">30 mA · 25 A</text>
  <path class="n w2" d="M430 140 H480 M480 140 V105 H540 M480 140 V195 H540"/>
  <circle class="dn" cx="480" cy="140" r="3.5"/>
  <text class="id mid" x="510" y="98">wire031</text>
  <text class="id mid" x="510" y="188">wire037</text>
  <rect class="box" x="540" y="95" width="60" height="20"/>
  <text class="ts mid" x="570" y="109">10 A</text>
  <text class="ts mid" x="570" y="131">chargeur</text>
  <rect class="box" x="540" y="185" width="60" height="20"/>
  <text class="ts mid" x="570" y="199">16 A</text>
  <text class="ts mid" x="570" y="222">reste du bord</text>

  <!-- Chargeur -->
  <path class="n w2" d="M600 105 H900"/>
  <path class="n w1" d="M794 112 L802 98 M799 112 L807 98 M804 112 L812 98"/>
  <text class="id mid" x="780" y="93">wire032 · wire033</text>
  <text class="id mid" x="780" y="127">wire035 · 3 × 2,5</text>
  <rect class="box" x="900" y="70" width="170" height="82" rx="2"/>
  <text class="tb mid" x="985" y="94">Chargeur de quai</text>
  <text class="ts mid" x="985" y="111">Dolphin 12 V · 20 A</text>
  <text class="ts mid" x="985" y="127">sorties 12 V : folio 1</text>
  <text class="id mid" x="985" y="144">node200–202</text>

  <!-- Vers les boîtiers de distribution -->
  <path class="n w2" d="M600 195 H640 V300 H310 V330"/>
  <path class="n w1" d="M464 307 L472 293 M469 307 L477 293 M474 307 L482 293"/>
  <text class="id mid" x="470" y="287">wire038 · wire039 · wire040 · 3 × 2,5</text>

  <!-- ============ Boîtier tribord ============ -->
  <rect class="bound" x="60" y="330" width="500" height="100"/>
  <text class="ts" x="70" y="347">Boîtier de distribution tribord · cabinet de toilette · 4 disjoncteurs Legrand DNX3</text>
  <path class="n w4" d="M130 365 H530"/>
  <circle class="dn" cx="310" cy="365" r="3.5"/>
  <path class="n w2" d="M310 330 V365"/>
  <path class="n w2" d="M150 365 V385 M410 365 V385 M510 365 V385"/>
  <rect class="box" x="130" y="385" width="40" height="20"/>
  <text class="ts mid" x="150" y="399">10 A</text>
  <text class="ts" x="178" y="399">éclairage</text>
  <path class="u" d="M270 365 V385"/>
  <rect class="box-unk" x="250" y="385" width="40" height="20"/>
  <text class="ts mid tu" x="270" y="399">10 A</text>
  <g class="mk-q"><circle cx="270" cy="420" r="11"/><text class="mid" x="270" y="423.5">Q42</text></g>
  <rect class="box" x="390" y="385" width="40" height="20"/>
  <text class="ts mid" x="410" y="399">16 A</text>
  <text class="ts end" x="402" y="422">prises tribord</text>
  <rect class="box" x="490" y="385" width="40" height="20"/>
  <text class="ts mid" x="510" y="399">16 A</text>
  <text class="ts end" x="502" y="422">bâbord</text>

  <!-- Vers la boîte de dérivation bâbord -->
  <path class="n w2" d="M530 395 H815 V365 H900"/>
  <path class="n w1" d="M694 402 L702 388 M699 402 L707 388 M704 402 L712 388"/>
  <text class="id mid" x="700" y="382">wire041 · wire042 · wire043 · 3 × 2,5</text>

  <!-- Plafonnier -->
  <path class="n w2" d="M150 405 V500"/>
  <path class="n w1" d="M143 458 L157 450 M143 464 L157 456 M143 470 L157 462"/>
  <text class="id end" x="138" y="448">wire050</text>
  <text class="id end" x="138" y="460">wire051</text>
  <text class="id end" x="138" y="472">wire068</text>
  <text class="id end" x="138" y="484">3 × 1,5</text>
  <circle class="box" cx="150" cy="515" r="15"/>
  <path class="n w1" d="M139 504 L161 526 M161 504 L139 526"/>
  <text class="tb mid" x="150" y="548">Plafonnier 230 V</text>
  <text class="ts mid" x="150" y="564">métallique, terre raccordée</text>

  <!-- Prises tribord -->
  <path class="n w2" d="M410 405 V450 M410 450 H330 V490 M410 450 H490 V490"/>
  <circle class="dn" cx="410" cy="450" r="3.5"/>
  <path class="n w1" d="M323 474 L337 466 M323 480 L337 472 M323 486 L337 478"/>
  <path class="n w1" d="M483 474 L497 466 M483 480 L497 472 M483 486 L497 478"/>
  <path class="n w2" d="M490 450 H600 V490"/>
  <path class="n w1" d="M593 474 L607 466 M593 480 L607 472 M593 486 L607 478"/>
  <text class="id" x="612" y="462">wire065</text>
  <text class="id" x="612" y="474">wire066</text>
  <text class="id" x="612" y="486">wire067</text>
  <rect class="box" x="580" y="490" width="40" height="28" rx="2"/>
  <text class="pin mid" x="600" y="508">PC 16 A</text>
  <text class="tb mid" x="600" y="536">Prise toilette</text>
  <text class="id end" x="318" y="462">wire044</text>
  <text class="id end" x="318" y="474">wire045</text>
  <text class="id end" x="318" y="486">wire046</text>
  <text class="id" x="502" y="462">wire047</text>
  <text class="id" x="502" y="474">wire048</text>
  <text class="id" x="502" y="486">wire049</text>
  <rect class="box" x="310" y="490" width="40" height="28" rx="2"/>
  <text class="pin mid" x="330" y="508">PC 16 A</text>
  <rect class="box" x="470" y="490" width="40" height="28" rx="2"/>
  <text class="pin mid" x="490" y="508">PC 16 A</text>
  <text class="tb mid" x="490" y="536">Prise cuisine</text>

  <!-- EPS 100 branché sur sa prise -->
  <path class="n w2" d="M330 518 V560"/>
  <path class="n w1" d="M323 545 L337 537 M323 551 L337 543"/>
  <text class="tb" x="340" y="536">Prise du frigo</text>
  <text class="id end" x="318" y="540">wire052 · wire053</text>
  <text class="id end" x="318" y="552">cordon 2 fils</text>
  <text class="ts" x="342" y="552">fiche sans terre</text>
  <rect class="box" x="280" y="560" width="100" height="40" rx="2"/>
  <text class="tb mid" x="330" y="578">EPS 100</text>
  <text class="ts mid" x="330" y="593">frigo · folio 1</text>

  <!-- ============ Boîte de dérivation bâbord ============ -->
  <rect class="bound" x="840" y="330" width="300" height="100"/>
  <text class="ts" x="850" y="347">Boîte de dérivation bâbord · table à carte</text>
  <path class="n w4" d="M900 365 H1080"/>
  <circle class="dn" cx="900" cy="365" r="3.5"/>
  <path class="n w2" d="M990 365 V405"/>
  <circle class="dn" cx="990" cy="365" r="3.5"/>
  <text class="ts" x="850" y="398">sans disjoncteur, alimentée</text>
  <text class="ts" x="850" y="413">par le 16 A bâbord</text>
  <text class="id" x="1010" y="398">node240–242</text>

  <!-- Prises bâbord -->
  <path class="n w2" d="M990 405 V450 M990 450 H910 V490 M990 450 H1070 V490"/>
  <circle class="dn" cx="990" cy="450" r="3.5"/>
  <path class="n w1" d="M903 474 L917 466 M903 480 L917 472 M903 486 L917 478"/>
  <path class="n w1" d="M1063 474 L1077 466 M1063 480 L1077 472 M1063 486 L1077 478"/>
  <text class="id end" x="898" y="462">wire055</text>
  <text class="id end" x="898" y="474">wire056</text>
  <text class="id end" x="898" y="486">wire057</text>
  <text class="id" x="1082" y="462">wire058</text>
  <text class="id" x="1082" y="474">wire059</text>
  <text class="id" x="1082" y="486">wire060</text>
  <rect class="box" x="890" y="490" width="40" height="28" rx="2"/>
  <text class="pin mid" x="910" y="508">PC 16 A</text>
  <rect class="box" x="1050" y="490" width="40" height="28" rx="2"/>
  <text class="pin mid" x="1070" y="508">PC 16 A</text>
  <text class="tb mid" x="910" y="536">Prise table à carte</text>
  <text class="tb mid" x="1070" y="536">Prise armoire</text>

  <text class="ts" x="40" y="628">Schéma unifilaire : un trait par câble, les barres obliques donnent le nombre de conducteurs (3 : phase, neutre, terre).</text>
</svg>
